<svg xmlns="http://www.w3.org/2000/svg" xmlns:xlink="http://www.w3.org/1999/xlink" width="377" zoomAndPan="magnify" viewBox="0 0 283.5 283.500005" height="377" preserveAspectRatio="xMidYMid meet" version="1.0"><defs><clipPath id="8ee3cb07f7"><path d="M 0 0 L 283 0 L 283 283 L 0 283 Z M 0 0 " clip-rule="nonzero"/></clipPath><clipPath id="c7f8a701e3"><path d="M 141.730469 0 C 63.457031 0 0 63.457031 0 141.730469 C 0 220.007812 63.457031 283.464844 141.730469 283.464844 C 220.007812 283.464844 283.464844 220.007812 283.464844 141.730469 C 283.464844 63.457031 220.007812 0 141.730469 0 Z M 141.730469 0 " clip-rule="nonzero"/></clipPath><clipPath id="98b3eda4b2"><path d="M 70.398438 73.164062 L 212.898438 73.164062 L 212.898438 210.414062 L 70.398438 210.414062 Z M 70.398438 73.164062 " clip-rule="nonzero"/></clipPath></defs><g clip-path="url(#8ee3cb07f7)"><g clip-path="url(#c7f8a701e3)"><path fill="#97c9ce" d="M 0 0 L 283.464844 0 L 283.464844 283.464844 L 0 283.464844 Z M 0 0 " fill-opacity="1" fill-rule="nonzero"/></g></g><g clip-path="url(#98b3eda4b2)"><path fill="#ffffff" d="M 207.398438 106.105469 L 75.902344 106.105469 L 75.902344 92.378906 C 75.902344 90.867188 77.132812 89.632812 78.640625 89.632812 L 89.597656 89.632812 L 89.597656 92.378906 C 89.597656 96.925781 93.28125 100.613281 97.816406 100.613281 C 102.355469 100.613281 106.035156 96.925781 106.035156 92.378906 L 106.035156 89.632812 L 119.734375 89.632812 L 119.734375 92.378906 C 119.734375 96.925781 123.414062 100.613281 127.953125 100.613281 C 132.488281 100.613281 136.171875 96.925781 136.171875 92.378906 L 136.171875 89.632812 L 147.128906 89.632812 L 147.128906 92.378906 C 147.128906 96.925781 150.808594 100.613281 155.347656 100.613281 C 159.882812 100.613281 163.566406 96.925781 163.566406 92.378906 L 163.566406 89.632812 L 174.523438 89.632812 L 174.523438 92.378906 C 174.523438 96.925781 178.203125 100.613281 182.742188 100.613281 C 187.28125 100.613281 190.960938 96.925781 190.960938 92.378906 L 190.960938 89.632812 L 204.65625 89.632812 C 206.167969 89.632812 207.398438 90.867188 207.398438 92.378906 Z M 207.398438 202.179688 C 207.398438 203.691406 206.167969 204.921875 204.65625 204.921875 L 78.640625 204.921875 C 77.132812 204.921875 75.902344 203.691406 75.902344 202.179688 L 75.902344 111.59375 L 207.398438 111.59375 Z M 95.078125 81.398438 C 95.078125 79.886719 96.308594 78.652344 97.816406 78.652344 C 99.328125 78.652344 100.558594 79.886719 100.558594 81.398438 L 100.558594 92.378906 C 100.558594 93.890625 99.328125 95.125 97.816406 95.125 C 96.308594 95.125 95.078125 93.890625 95.078125 92.378906 Z M 125.210938 81.398438 C 125.210938 79.886719 126.441406 78.652344 127.953125 78.652344 C 129.460938 78.652344 130.691406 79.886719 130.691406 81.398438 L 130.691406 92.378906 C 130.691406 93.890625 129.460938 95.125 127.953125 95.125 C 126.441406 95.125 125.210938 93.890625 125.210938 92.378906 Z M 152.609375 81.398438 C 152.609375 79.886719 153.839844 78.652344 155.347656 78.652344 C 156.855469 78.652344 158.085938 79.886719 158.085938 81.398438 L 158.085938 92.378906 C 158.085938 93.890625 156.855469 95.125 155.347656 95.125 C 153.839844 95.125 152.609375 93.890625 152.609375 92.378906 Z M 180.003906 81.398438 C 180.003906 79.886719 181.234375 78.652344 182.742188 78.652344 C 184.25 78.652344 185.480469 79.886719 185.480469 81.398438 L 185.480469 92.378906 C 185.480469 93.890625 184.25 95.125 182.742188 95.125 C 181.234375 95.125 180.003906 93.890625 180.003906 92.378906 Z M 204.65625 84.144531 L 190.960938 84.144531 L 190.960938 81.398438 C 190.960938 76.851562 187.28125 73.164062 182.742188 73.164062 C 178.203125 73.164062 174.523438 76.851562 174.523438 81.398438 L 174.523438 84.144531 L 163.566406 84.144531 L 163.566406 81.398438 C 163.566406 76.851562 159.882812 73.164062 155.347656 73.164062 C 150.808594 73.164062 147.128906 76.851562 147.128906 81.398438 L 147.128906 84.144531 L 136.171875 84.144531 L 136.171875 81.398438 C 136.171875 76.851562 132.488281 73.164062 127.953125 73.164062 C 123.414062 73.164062 119.734375 76.851562 119.734375 81.398438 L 119.734375 84.144531 L 106.035156 84.144531 L 106.035156 81.398438 C 106.035156 76.851562 102.355469 73.164062 97.816406 73.164062 C 93.28125 73.164062 89.597656 76.851562 89.597656 81.398438 L 89.597656 84.144531 L 78.640625 84.144531 C 74.105469 84.144531 70.421875 87.832031 70.421875 92.378906 L 70.421875 202.179688 C 70.421875 206.726562 74.105469 210.414062 78.640625 210.414062 L 204.65625 210.414062 C 209.195312 210.414062 212.875 206.726562 212.875 202.179688 L 212.875 92.378906 C 212.875 87.832031 209.195312 84.144531 204.65625 84.144531 " fill-opacity="1" fill-rule="nonzero"/></g><path fill="#ffffff" d="M 121.832031 179.617188 L 120.484375 171.8125 L 127.546875 173.132812 Z M 114.523438 161.851562 C 116.03125 161.742188 117.164062 160.425781 117.058594 158.914062 C 116.585938 152.242188 118.761719 145.808594 123.191406 140.792969 C 127.546875 135.847656 133.570312 132.910156 140.152344 132.503906 C 146.722656 132.105469 153.058594 134.292969 157.992188 138.667969 C 162.921875 143.042969 165.855469 149.082031 166.261719 155.664062 C 166.660156 162.246094 164.476562 168.59375 160.109375 173.539062 C 152.363281 182.320312 139.808594 184.347656 129.824219 178.835938 L 134.863281 173.140625 C 135.519531 172.402344 135.722656 171.363281 135.398438 170.429688 C 135.078125 169.496094 134.277344 168.800781 133.3125 168.617188 L 117.605469 165.691406 C 116.726562 165.539062 115.816406 165.796875 115.175781 166.429688 C 114.542969 167.074219 114.253906 167.972656 114.40625 168.851562 L 117.402344 186.179688 C 117.582031 187.222656 118.34375 188.058594 119.347656 188.347656 C 119.605469 188.421875 119.851562 188.453125 120.097656 188.453125 C 120.867188 188.453125 121.628906 188.132812 122.152344 187.53125 L 126.113281 183.050781 C 130.9375 185.964844 136.308594 187.402344 141.660156 187.402344 C 149.996094 187.402344 158.269531 183.90625 164.21875 177.183594 C 175.230469 164.714844 174.0625 145.59375 161.617188 134.550781 C 155.59375 129.210938 147.867188 126.542969 139.820312 127.023438 C 131.78125 127.515625 124.421875 131.109375 119.082031 137.15625 C 113.675781 143.277344 111.011719 151.148438 111.589844 159.308594 C 111.695312 160.8125 112.960938 161.980469 114.523438 161.851562 " fill-opacity="1" fill-rule="nonzero"/><path fill="#ffffff" d="M 141.671875 137.949219 C 140.152344 137.949219 138.929688 139.183594 138.929688 140.695312 L 138.929688 157.164062 C 138.929688 158.035156 139.339844 158.847656 140.023438 159.363281 L 150.980469 167.597656 C 151.472656 167.960938 152.050781 168.144531 152.617188 168.144531 C 153.453125 168.144531 154.277344 167.769531 154.8125 167.050781 C 155.722656 165.839844 155.476562 164.113281 154.265625 163.203125 L 144.410156 155.792969 L 144.410156 140.695312 C 144.410156 139.183594 143.179688 137.949219 141.671875 137.949219 " fill-opacity="1" fill-rule="nonzero"/><path fill="#ffffff" d="M 169.042969 193.945312 L 174.523438 193.945312 L 174.523438 188.453125 L 169.042969 188.453125 L 169.042969 193.945312 " fill-opacity="1" fill-rule="nonzero"/><path fill="#ffffff" d="M 185.480469 188.453125 L 180.003906 188.453125 L 180.003906 193.945312 L 185.480469 193.945312 L 185.480469 188.453125 " fill-opacity="1" fill-rule="nonzero"/><path fill="#ffffff" d="M 196.441406 188.453125 L 190.960938 188.453125 L 190.960938 193.945312 L 196.441406 193.945312 L 196.441406 188.453125 " fill-opacity="1" fill-rule="nonzero"/></svg>