<svg xmlns="http://www.w3.org/2000/svg" xmlns:xlink="http://www.w3.org/1999/xlink" width="377" zoomAndPan="magnify" viewBox="0 0 283.5 283.500005" height="377" preserveAspectRatio="xMidYMid meet" version="1.0"><defs><clipPath id="13ff994403"><path d="M 0 0 L 283 0 L 283 283 L 0 283 Z M 0 0 " clip-rule="nonzero"/></clipPath><clipPath id="0c66937937"><path d="M 141.730469 0 C 63.457031 0 0 63.457031 0 141.730469 C 0 220.007812 63.457031 283.464844 141.730469 283.464844 C 220.007812 283.464844 283.464844 220.007812 283.464844 141.730469 C 283.464844 63.457031 220.007812 0 141.730469 0 Z M 141.730469 0 " clip-rule="nonzero"/></clipPath><clipPath id="0aa40b327b"><path d="M 0 0 L 283 0 L 283 283 L 0 283 Z M 0 0 " clip-rule="nonzero"/></clipPath></defs><g clip-path="url(#13ff994403)"><g clip-path="url(#0c66937937)"><path fill="#97c9ce" d="M 0 0 L 283.464844 0 L 283.464844 283.464844 L 0 283.464844 Z M 0 0 " fill-opacity="1" fill-rule="nonzero"/></g></g><g clip-path="url(#0aa40b327b)"><path fill="#97c9ce" d="M 283.5 141.75 C 283.5 144.070312 283.441406 146.386719 283.328125 148.707031 C 283.214844 151.023438 283.042969 153.335938 282.816406 155.644531 C 282.589844 157.953125 282.304688 160.253906 281.964844 162.550781 C 281.625 164.84375 281.230469 167.128906 280.777344 169.402344 C 280.324219 171.679688 279.816406 173.941406 279.25 176.191406 C 278.6875 178.441406 278.070312 180.679688 277.394531 182.898438 C 276.722656 185.117188 275.996094 187.320312 275.214844 189.503906 C 274.433594 191.6875 273.597656 193.851562 272.710938 195.996094 C 271.820312 198.136719 270.882812 200.257812 269.890625 202.355469 C 268.898438 204.453125 267.855469 206.523438 266.761719 208.570312 C 265.667969 210.617188 264.527344 212.632812 263.332031 214.625 C 262.140625 216.613281 260.898438 218.574219 259.609375 220.503906 C 258.320312 222.429688 256.988281 224.328125 255.605469 226.191406 C 254.222656 228.054688 252.796875 229.882812 251.324219 231.675781 C 249.851562 233.46875 248.335938 235.222656 246.78125 236.945312 C 245.222656 238.664062 243.621094 240.34375 241.980469 241.980469 C 240.34375 243.621094 238.664062 245.222656 236.945312 246.78125 C 235.222656 248.335938 233.46875 249.851562 231.675781 251.324219 C 229.882812 252.796875 228.054688 254.222656 226.191406 255.605469 C 224.328125 256.988281 222.429688 258.320312 220.503906 259.609375 C 218.574219 260.898438 216.613281 262.140625 214.625 263.332031 C 212.632812 264.527344 210.617188 265.667969 208.570312 266.761719 C 206.523438 267.855469 204.453125 268.898438 202.355469 269.890625 C 200.257812 270.882812 198.136719 271.820312 195.996094 272.710938 C 193.851562 273.597656 191.6875 274.433594 189.503906 275.214844 C 187.320312 275.996094 185.117188 276.722656 182.898438 277.394531 C 180.679688 278.070312 178.441406 278.6875 176.191406 279.25 C 173.941406 279.816406 171.679688 280.324219 169.402344 280.777344 C 167.128906 281.230469 164.84375 281.625 162.550781 281.964844 C 160.253906 282.304688 157.953125 282.589844 155.644531 282.816406 C 153.335938 283.042969 151.023438 283.214844 148.707031 283.328125 C 146.386719 283.441406 144.070312 283.5 141.75 283.5 C 139.429688 283.5 137.113281 283.441406 134.792969 283.328125 C 132.476562 283.214844 130.164062 283.042969 127.855469 282.816406 C 125.546875 282.589844 123.246094 282.304688 120.949219 281.964844 C 118.65625 281.625 116.371094 281.230469 114.097656 280.777344 C 111.820312 280.324219 109.558594 279.816406 107.308594 279.25 C 105.058594 278.6875 102.820312 278.070312 100.601562 277.394531 C 98.382812 276.722656 96.179688 275.996094 93.996094 275.214844 C 91.8125 274.433594 89.648438 273.597656 87.503906 272.710938 C 85.363281 271.820312 83.242188 270.882812 81.144531 269.890625 C 79.046875 268.898438 76.976562 267.855469 74.929688 266.761719 C 72.882812 265.667969 70.867188 264.527344 68.875 263.332031 C 66.886719 262.140625 64.925781 260.898438 62.996094 259.609375 C 61.070312 258.320312 59.171875 256.988281 57.308594 255.605469 C 55.445312 254.222656 53.617188 252.796875 51.824219 251.324219 C 50.03125 249.851562 48.277344 248.335938 46.554688 246.78125 C 44.835938 245.222656 43.15625 243.621094 41.519531 241.980469 C 39.878906 240.34375 38.277344 238.664062 36.71875 236.945312 C 35.164062 235.222656 33.648438 233.46875 32.175781 231.675781 C 30.703125 229.882812 29.277344 228.054688 27.894531 226.191406 C 26.511719 224.328125 25.179688 222.429688 23.890625 220.503906 C 22.601562 218.574219 21.359375 216.613281 20.167969 214.625 C 18.972656 212.632812 17.832031 210.617188 16.738281 208.570312 C 15.644531 206.523438 14.601562 204.453125 13.609375 202.355469 C 12.617188 200.257812 11.679688 198.136719 10.789062 195.996094 C 9.902344 193.851562 9.066406 191.6875 8.285156 189.503906 C 7.503906 187.320312 6.777344 185.117188 6.105469 182.898438 C 5.429688 180.679688 4.8125 178.441406 4.25 176.191406 C 3.683594 173.941406 3.175781 171.679688 2.722656 169.402344 C 2.269531 167.128906 1.875 164.84375 1.535156 162.550781 C 1.195312 160.253906 0.910156 157.953125 0.683594 155.644531 C 0.457031 153.335938 0.285156 151.023438 0.171875 148.707031 C 0.0585938 146.386719 0 144.070312 0 141.75 C 0 139.429688 0.0585938 137.113281 0.171875 134.792969 C 0.285156 132.476562 0.457031 130.164062 0.683594 127.855469 C 0.910156 125.546875 1.195312 123.246094 1.535156 120.949219 C 1.875 118.65625 2.269531 116.371094 2.722656 114.097656 C 3.175781 111.820312 3.683594 109.558594 4.25 107.308594 C 4.8125 105.058594 5.429688 102.820312 6.105469 100.601562 C 6.777344 98.382812 7.503906 96.179688 8.285156 93.996094 C 9.066406 91.8125 9.902344 89.648438 10.789062 87.503906 C 11.679688 85.363281 12.617188 83.242188 13.609375 81.144531 C 14.601562 79.046875 15.644531 76.976562 16.738281 74.929688 C 17.832031 72.882812 18.972656 70.867188 20.167969 68.875 C 21.359375 66.886719 22.601562 64.925781 23.890625 62.996094 C 25.179688 61.070312 26.511719 59.171875 27.894531 57.308594 C 29.277344 55.445312 30.703125 53.617188 32.175781 51.824219 C 33.648438 50.03125 35.164062 48.277344 36.71875 46.554688 C 38.277344 44.835938 39.878906 43.15625 41.519531 41.519531 C 43.15625 39.878906 44.835938 38.277344 46.554688 36.71875 C 48.277344 35.164062 50.03125 33.648438 51.824219 32.175781 C 53.617188 30.703125 55.445312 29.277344 57.308594 27.894531 C 59.171875 26.511719 61.070312 25.179688 62.996094 23.890625 C 64.925781 22.601562 66.886719 21.359375 68.875 20.167969 C 70.867188 18.972656 72.882812 17.832031 74.929688 16.738281 C 76.976562 15.644531 79.046875 14.601562 81.144531 13.609375 C 83.242188 12.617188 85.363281 11.679688 87.503906 10.789062 C 89.648438 9.902344 91.8125 9.066406 93.996094 8.285156 C 96.179688 7.503906 98.382812 6.777344 100.601562 6.105469 C 102.820312 5.429688 105.058594 4.8125 107.308594 4.25 C 109.558594 3.683594 111.820312 3.175781 114.097656 2.722656 C 116.371094 2.269531 118.65625 1.875 120.949219 1.535156 C 123.246094 1.195312 125.546875 0.910156 127.855469 0.683594 C 130.164062 0.457031 132.476562 0.285156 134.792969 0.171875 C 137.113281 0.0585938 139.429688 0 141.75 0 C 144.070312 0 146.386719 0.0585938 148.707031 0.171875 C 151.023438 0.285156 153.335938 0.457031 155.644531 0.683594 C 157.953125 0.910156 160.253906 1.195312 162.550781 1.535156 C 164.84375 1.875 167.128906 2.269531 169.402344 2.722656 C 171.679688 3.175781 173.941406 3.683594 176.191406 4.25 C 178.441406 4.8125 180.679688 5.429688 182.898438 6.105469 C 185.117188 6.777344 187.320312 7.503906 189.503906 8.285156 C 191.6875 9.066406 193.851562 9.902344 195.996094 10.789062 C 198.136719 11.679688 200.257812 12.617188 202.355469 13.609375 C 204.453125 14.601562 206.523438 15.644531 208.570312 16.738281 C 210.617188 17.832031 212.632812 18.972656 214.625 20.167969 C 216.613281 21.359375 218.574219 22.601562 220.503906 23.890625 C 222.429688 25.179688 224.328125 26.511719 226.191406 27.894531 C 228.054688 29.277344 229.882812 30.703125 231.675781 32.175781 C 233.46875 33.648438 235.222656 35.164062 236.945312 36.71875 C 238.664062 38.277344 240.34375 39.878906 241.980469 41.519531 C 243.621094 43.15625 245.222656 44.835938 246.78125 46.554688 C 248.335938 48.277344 249.851562 50.03125 251.324219 51.824219 C 252.796875 53.617188 254.222656 55.445312 255.605469 57.308594 C 256.988281 59.171875 258.320312 61.070312 259.609375 62.996094 C 260.898438 64.925781 262.140625 66.886719 263.332031 68.875 C 264.527344 70.867188 265.667969 72.882812 266.761719 74.929688 C 267.855469 76.976562 268.898438 79.046875 269.890625 81.144531 C 270.882812 83.242188 271.820312 85.363281 272.710938 87.503906 C 273.597656 89.648438 274.433594 91.8125 275.214844 93.996094 C 275.996094 96.179688 276.722656 98.382812 277.394531 100.601562 C 278.070312 102.820312 278.6875 105.058594 279.25 107.308594 C 279.816406 109.558594 280.324219 111.820312 280.777344 114.097656 C 281.230469 116.371094 281.625 118.65625 281.964844 120.949219 C 282.304688 123.246094 282.589844 125.546875 282.816406 127.855469 C 283.042969 130.164062 283.214844 132.476562 283.328125 134.792969 C 283.441406 137.113281 283.5 139.429688 283.5 141.75 Z M 283.5 141.75 " fill-opacity="1" fill-rule="nonzero"/></g><path fill="#fffffe" d="M 161.703125 182.871094 C 162.320312 185.691406 162.824219 188.210938 163.230469 190.363281 C 163.664062 192.648438 163.976562 194.476562 164.1875 195.792969 C 165.9375 195.519531 167.621094 195.523438 169.261719 195.703125 C 169.042969 194.304688 168.6875 192.164062 168.171875 189.4375 C 167.695312 186.902344 167.070312 183.816406 166.269531 180.25 C 165.65625 177.527344 164.984375 174.679688 164.257812 171.820312 C 163.585938 169.191406 162.835938 166.386719 161.996094 163.429688 C 161.988281 163.398438 161.976562 163.363281 161.96875 163.332031 C 157.070312 146.132812 149.332031 124.613281 137.496094 104.078125 C 128.585938 88.625 117.363281 73.75 103.296875 61.71875 L 103.300781 61.714844 C 102.265625 60.832031 100.71875 60.929688 99.808594 61.925781 L 87.914062 72.664062 L 87.910156 72.65625 C 87.246094 73.257812 86.972656 74.128906 87.113281 74.949219 L 95.910156 150.878906 C 95.914062 150.933594 95.921875 150.988281 95.929688 151.042969 L 97.605469 165.496094 L 97.601562 165.5 C 97.734375 166.648438 98.621094 167.527344 99.707031 167.699219 Z M 157.546875 166.207031 C 158.203125 168.566406 158.8125 170.859375 159.375 173.058594 C 159.765625 174.59375 160.121094 176.035156 160.445312 177.390625 L 102.40625 163.1875 L 101.328125 153.886719 L 97.890625 153.132812 Z M 97.585938 153.046875 C 97.195312 152.910156 96.855469 152.679688 96.585938 152.390625 C 96.855469 152.679688 97.195312 152.910156 97.585938 153.046875 Z M 96.550781 152.355469 C 96.484375 152.28125 96.421875 152.207031 96.367188 152.125 C 96.421875 152.207031 96.484375 152.28125 96.550781 152.355469 Z M 96.234375 151.917969 C 96.210938 151.875 96.1875 151.832031 96.164062 151.785156 C 96.1875 151.832031 96.210938 151.875 96.234375 151.917969 Z M 98.953125 148.210938 L 100.714844 148.597656 L 92.246094 75.515625 L 101.691406 66.988281 C 114.519531 78.355469 124.855469 92.203125 133.144531 106.582031 C 143.8125 125.089844 151.101562 144.515625 155.953125 160.699219 Z M 98.953125 148.210938 " fill-opacity="1" fill-rule="evenodd"/><path fill="#fffffe" d="M 73.554688 196.753906 C 72.617188 195.726562 71.027344 195.652344 70 196.585938 C 68.972656 197.523438 68.898438 199.113281 69.832031 200.140625 C 69.855469 200.164062 77.75 208.980469 90.378906 202.316406 C 95.921875 199.390625 100.953125 200.941406 105.984375 202.492188 C 112.007812 204.351562 118.03125 206.207031 125.40625 202.316406 C 130.953125 199.390625 135.980469 200.941406 141.011719 202.492188 C 147.035156 204.351562 153.058594 206.207031 160.4375 202.316406 C 165.980469 199.390625 171.011719 200.941406 176.039062 202.492188 C 182.0625 204.351562 188.085938 206.207031 195.464844 202.316406 C 204.628906 197.480469 209.929688 203.410156 209.945312 203.425781 C 210.878906 204.453125 212.472656 204.53125 213.5 203.59375 C 214.527344 202.660156 214.601562 201.066406 213.667969 200.039062 C 213.644531 200.015625 205.75 191.199219 193.121094 197.867188 C 187.578125 200.792969 182.546875 199.238281 177.515625 197.6875 C 171.492188 195.832031 165.46875 193.972656 158.09375 197.867188 C 152.546875 200.792969 147.519531 199.238281 142.488281 197.6875 C 136.464844 195.832031 130.441406 193.972656 123.0625 197.867188 C 117.519531 200.792969 112.488281 199.238281 107.460938 197.6875 C 101.4375 195.832031 95.414062 193.972656 88.035156 197.867188 C 78.871094 202.703125 73.570312 196.769531 73.554688 196.753906 Z M 73.554688 196.753906 " fill-opacity="1" fill-rule="nonzero"/><path fill="#fffffe" d="M 73.554688 214.34375 C 72.617188 213.316406 71.027344 213.242188 70 214.175781 C 68.972656 215.109375 68.898438 216.703125 69.832031 217.730469 C 69.855469 217.753906 77.75 226.570312 90.378906 219.90625 C 95.921875 216.980469 100.953125 218.53125 105.984375 220.082031 C 112.007812 221.941406 118.03125 223.796875 125.40625 219.90625 C 130.953125 216.980469 135.980469 218.53125 141.011719 220.082031 C 147.035156 221.941406 153.058594 223.796875 160.4375 219.90625 C 165.980469 216.980469 171.011719 218.53125 176.039062 220.082031 C 182.0625 221.941406 188.085938 223.796875 195.464844 219.90625 C 204.628906 215.070312 209.929688 221 209.945312 221.015625 C 210.878906 222.042969 212.472656 222.117188 213.5 221.183594 C 214.527344 220.25 214.601562 218.65625 213.667969 217.628906 C 213.644531 217.605469 205.75 208.789062 193.121094 215.457031 C 187.578125 218.382812 182.546875 216.828125 177.515625 215.277344 C 171.492188 213.421875 165.46875 211.5625 158.09375 215.457031 C 152.546875 218.382812 147.515625 216.828125 142.488281 215.277344 C 136.464844 213.421875 130.441406 211.5625 123.0625 215.457031 C 117.519531 218.378906 112.488281 216.828125 107.460938 215.277344 C 101.4375 213.421875 95.414062 211.5625 88.035156 215.457031 C 78.871094 220.292969 73.570312 214.359375 73.554688 214.34375 Z M 73.554688 214.34375 " fill-opacity="1" fill-rule="nonzero"/></svg>