<svg xmlns="http://www.w3.org/2000/svg" xmlns:xlink="http://www.w3.org/1999/xlink" width="377" zoomAndPan="magnify" viewBox="0 0 283.5 283.500005" height="377" preserveAspectRatio="xMidYMid meet" version="1.0"><defs><clipPath id="383b9838de"><path d="M 0 0 L 283 0 L 283 283 L 0 283 Z M 0 0 " clip-rule="nonzero"/></clipPath><clipPath id="ee7cd2167a"><path d="M 141.730469 0 C 63.457031 0 0 63.457031 0 141.730469 C 0 220.007812 63.457031 283.464844 141.730469 283.464844 C 220.007812 283.464844 283.464844 220.007812 283.464844 141.730469 C 283.464844 63.457031 220.007812 0 141.730469 0 Z M 141.730469 0 " clip-rule="nonzero"/></clipPath><clipPath id="bb4311bddb"><path d="M 45.265625 139 L 52 139 L 52 147 L 45.265625 147 Z M 45.265625 139 " clip-rule="nonzero"/></clipPath><clipPath id="736e881d91"><path d="M 231 140 L 238.015625 140 L 238.015625 147 L 231 147 Z M 231 140 " clip-rule="nonzero"/></clipPath></defs><g clip-path="url(#383b9838de)"><g clip-path="url(#ee7cd2167a)"><path fill="#97c9ce" d="M 0 0 L 283.464844 0 L 283.464844 283.464844 L 0 283.464844 Z M 0 0 " fill-opacity="1" fill-rule="nonzero"/></g></g><g clip-path="url(#bb4311bddb)"><path fill="#ffffff" d="M 45.265625 146.050781 L 51.484375 146.113281 C 51.503906 144.085938 51.585938 142.082031 51.738281 140.09375 L 45.539062 139.625 C 45.382812 141.757812 45.289062 143.921875 45.265625 146.050781 Z M 45.265625 146.050781 " fill-opacity="1" fill-rule="nonzero"/></g><path fill="#ffffff" d="M 83.882812 77.601562 L 79.898438 72.835938 C 78.269531 74.203125 76.660156 75.640625 75.113281 77.117188 L 79.398438 81.632812 C 80.851562 80.238281 82.347656 78.894531 83.882812 77.601562 Z M 83.882812 77.601562 " fill-opacity="1" fill-rule="nonzero"/><path fill="#ffffff" d="M 176.613281 56.945312 C 174.652344 56.179688 172.613281 55.464844 170.554688 54.8125 L 168.691406 60.757812 C 170.605469 61.359375 172.496094 62.027344 174.359375 62.753906 Z M 176.613281 56.945312 " fill-opacity="1" fill-rule="nonzero"/><path fill="#ffffff" d="M 46.234375 133.246094 L 52.390625 134.121094 C 52.671875 132.144531 53.011719 130.152344 53.4375 128.199219 L 47.351562 126.910156 C 46.910156 129 46.539062 131.128906 46.234375 133.246094 Z M 46.234375 133.246094 " fill-opacity="1" fill-rule="nonzero"/><path fill="#ffffff" d="M 48.890625 120.65625 L 54.875 122.347656 C 55.414062 120.433594 56.027344 118.503906 56.699219 116.617188 L 50.84375 114.523438 C 50.125 116.542969 49.46875 118.609375 48.890625 120.65625 Z M 48.890625 120.65625 " fill-opacity="1" fill-rule="nonzero"/><path fill="#ffffff" d="M 93.597656 70.519531 L 90.28125 65.25 C 88.484375 66.382812 86.699219 67.601562 84.964844 68.863281 L 88.625 73.902344 C 90.242188 72.722656 91.898438 71.59375 93.597656 70.519531 Z M 93.597656 70.519531 " fill-opacity="1" fill-rule="nonzero"/><path fill="#ffffff" d="M 151.714844 50.925781 C 149.609375 50.710938 147.453125 50.554688 145.3125 50.472656 L 145.074219 56.703125 C 147.089844 56.777344 149.089844 56.917969 151.074219 57.128906 Z M 151.714844 50.925781 " fill-opacity="1" fill-rule="nonzero"/><path fill="#ffffff" d="M 164.367188 53.105469 C 162.304688 52.605469 160.1875 52.171875 158.074219 51.804688 L 157.023438 57.945312 C 158.996094 58.285156 160.976562 58.695312 162.898438 59.160156 Z M 164.367188 53.105469 " fill-opacity="1" fill-rule="nonzero"/><path fill="#ffffff" d="M 139.0625 56.671875 L 138.890625 50.441406 C 136.761719 50.5 134.605469 50.632812 132.480469 50.835938 L 133.070312 57.035156 C 135.054688 56.847656 137.070312 56.726562 139.0625 56.671875 Z M 139.0625 56.671875 " fill-opacity="1" fill-rule="nonzero"/><path fill="#ffffff" d="M 104.171875 64.78125 L 101.582031 59.128906 C 99.628906 60.023438 97.695312 60.996094 95.828125 62.007812 L 98.792969 67.484375 C 100.539062 66.527344 102.347656 65.621094 104.171875 64.78125 Z M 104.171875 64.78125 " fill-opacity="1" fill-rule="nonzero"/><path fill="#ffffff" d="M 53.203125 108.546875 L 58.90625 111.039062 C 59.695312 109.207031 60.5625 107.378906 61.480469 105.605469 L 55.953125 102.746094 C 54.976562 104.636719 54.046875 106.589844 53.203125 108.546875 Z M 53.203125 108.546875 " fill-opacity="1" fill-rule="nonzero"/><path fill="#ffffff" d="M 127.109375 57.804688 L 126.113281 51.648438 C 124.027344 51.992188 121.910156 52.410156 119.820312 52.898438 L 121.210938 58.96875 C 123.15625 58.519531 125.121094 58.132812 127.109375 57.804688 Z M 127.109375 57.804688 " fill-opacity="1" fill-rule="nonzero"/><path fill="#ffffff" d="M 115.410156 60.515625 L 113.609375 54.554688 C 111.585938 55.175781 109.53125 55.867188 107.519531 56.632812 L 109.71875 62.460938 C 111.601562 61.746094 113.519531 61.09375 115.410156 60.515625 Z M 115.410156 60.515625 " fill-opacity="1" fill-rule="nonzero"/><path fill="#ffffff" d="M 75.199219 85.921875 L 70.613281 81.707031 C 69.175781 83.261719 67.769531 84.917969 66.4375 86.585938 L 71.28125 90.484375 C 72.535156 88.921875 73.84375 87.398438 75.199219 85.921875 Z M 75.199219 85.921875 " fill-opacity="1" fill-rule="nonzero"/><path fill="#ffffff" d="M 62.585938 91.730469 C 61.363281 93.480469 60.1875 95.296875 59.085938 97.136719 L 64.410156 100.355469 C 65.4375 98.644531 66.539062 96.953125 67.679688 95.3125 Z M 62.585938 91.730469 " fill-opacity="1" fill-rule="nonzero"/><path fill="#ffffff" d="M 212.5 91.117188 L 217.382812 87.261719 C 216.074219 85.597656 214.679688 83.9375 213.246094 82.339844 L 208.621094 86.507812 C 209.964844 88 211.257812 89.535156 212.5 91.117188 Z M 212.5 91.117188 " fill-opacity="1" fill-rule="nonzero"/><path fill="#ffffff" d="M 221.1875 92.464844 L 216.0625 95.988281 C 217.1875 97.636719 218.277344 99.34375 219.292969 101.066406 L 224.648438 97.878906 C 223.558594 96.035156 222.398438 94.210938 221.1875 92.464844 Z M 221.1875 92.464844 " fill-opacity="1" fill-rule="nonzero"/><path fill="#ffffff" d="M 232.730469 115.394531 L 226.855469 117.433594 C 227.507812 119.320312 228.097656 121.253906 228.625 123.179688 L 234.625 121.542969 C 234.078125 119.484375 233.441406 117.414062 232.730469 115.394531 Z M 232.730469 115.394531 " fill-opacity="1" fill-rule="nonzero"/><g clip-path="url(#736e881d91)"><path fill="#ffffff" d="M 237.808594 140.558594 L 231.589844 140.964844 C 231.730469 142.957031 231.796875 144.964844 231.796875 146.984375 L 238.015625 146.984375 C 238.015625 144.839844 237.945312 142.679688 237.808594 140.558594 Z M 237.808594 140.558594 " fill-opacity="1" fill-rule="nonzero"/></g><path fill="#ffffff" d="M 236.117188 127.808594 L 230.019531 129.035156 C 230.410156 130.996094 230.742188 132.976562 231.007812 134.976562 L 237.171875 134.15625 C 236.890625 132.03125 236.53125 129.898438 236.117188 127.808594 Z M 236.117188 127.808594 " fill-opacity="1" fill-rule="nonzero"/><path fill="#ffffff" d="M 227.730469 103.53125 L 222.179688 106.332031 C 223.082031 108.125 223.925781 109.949219 224.710938 111.804688 L 230.4375 109.378906 C 229.621094 107.417969 228.6875 105.449219 227.730469 103.53125 Z M 227.730469 103.53125 " fill-opacity="1" fill-rule="nonzero"/><path fill="#ffffff" d="M 199.015625 69.375 C 197.308594 68.105469 195.53125 66.882812 193.730469 65.714844 L 190.371094 70.964844 C 192.054688 72.054688 193.699219 73.195312 195.304688 74.394531 Z M 199.015625 69.375 " fill-opacity="1" fill-rule="nonzero"/><path fill="#ffffff" d="M 188.222656 62.417969 C 186.355469 61.382812 184.433594 60.402344 182.511719 59.5 L 179.878906 65.136719 C 181.695312 65.996094 183.476562 66.90625 185.226562 67.871094 Z M 188.222656 62.417969 " fill-opacity="1" fill-rule="nonzero"/><path fill="#ffffff" d="M 208.792969 77.703125 C 207.269531 76.21875 205.683594 74.765625 204.046875 73.378906 L 200.003906 78.121094 C 201.53125 79.421875 203.015625 80.773438 204.457031 82.167969 Z M 208.792969 77.703125 " fill-opacity="1" fill-rule="nonzero"/><path fill="#ffffff" d="M 193.71875 96.589844 L 200.222656 86.347656 C 200.414062 86.046875 200.550781 85.726562 200.628906 85.382812 C 200.710938 85.035156 200.730469 84.6875 200.691406 84.335938 C 200.652344 83.980469 200.554688 83.644531 200.402344 83.328125 C 200.25 83.007812 200.046875 82.722656 199.796875 82.472656 L 196.691406 79.355469 C 196.441406 79.105469 196.15625 78.902344 195.835938 78.75 C 195.515625 78.597656 195.183594 78.5 194.832031 78.460938 C 194.480469 78.421875 194.132812 78.445312 193.785156 78.523438 C 193.441406 78.605469 193.121094 78.738281 192.820312 78.929688 L 180.878906 86.542969 C 179.542969 85.71875 178.183594 84.933594 176.796875 84.195312 C 175.410156 83.453125 174.003906 82.757812 172.574219 82.109375 C 171.148438 81.457031 169.699219 80.851562 168.230469 80.292969 C 166.765625 79.734375 165.28125 79.21875 163.78125 78.753906 C 162.285156 78.289062 160.769531 77.871094 159.246094 77.503906 C 157.71875 77.132812 156.183594 76.8125 154.636719 76.539062 C 153.089844 76.265625 151.539062 76.042969 149.980469 75.871094 C 148.417969 75.695312 146.855469 75.570312 145.289062 75.496094 C 143.71875 75.421875 142.152344 75.394531 140.582031 75.421875 C 139.011719 75.445312 137.445312 75.519531 135.878906 75.640625 C 134.316406 75.765625 132.757812 75.9375 131.203125 76.160156 C 129.648438 76.382812 128.101562 76.65625 126.566406 76.976562 C 125.03125 77.296875 123.503906 77.664062 121.992188 78.082031 C 120.476562 78.496094 118.976562 78.960938 117.492188 79.472656 C 116.011719 79.984375 114.542969 80.542969 113.09375 81.148438 C 111.644531 81.753906 110.214844 82.402344 108.808594 83.097656 C 107.398438 83.792969 106.015625 84.53125 104.652344 85.3125 C 103.292969 86.097656 101.957031 86.921875 100.648438 87.789062 C 99.339844 88.65625 98.058594 89.5625 96.804688 90.511719 C 95.550781 91.460938 94.332031 92.445312 93.140625 93.472656 C 91.953125 94.5 90.796875 95.5625 89.671875 96.660156 C 88.550781 97.757812 87.460938 98.890625 86.410156 100.058594 C 85.359375 101.226562 84.34375 102.425781 83.367188 103.660156 C 82.394531 104.890625 81.457031 106.152344 80.5625 107.445312 C 79.664062 108.734375 78.808594 110.054688 77.996094 111.398438 C 77.183594 112.746094 76.414062 114.113281 75.6875 115.507812 C 74.960938 116.902344 74.277344 118.320312 73.640625 119.753906 C 73.003906 121.191406 72.410156 122.648438 71.863281 124.125 C 71.320312 125.597656 70.820312 127.089844 70.367188 128.597656 C 69.917969 130.101562 69.511719 131.621094 69.15625 133.152344 C 68.800781 134.683594 68.492188 136.226562 68.234375 137.777344 C 67.976562 139.328125 67.765625 140.886719 67.605469 142.453125 C 67.445312 144.015625 67.335938 145.585938 67.273438 147.15625 C 67.210938 148.730469 67.199219 150.300781 67.234375 151.875 C 67.273438 153.445312 67.359375 155.015625 67.496094 156.582031 C 67.632812 158.148438 67.820312 159.710938 68.054688 161.265625 C 68.289062 162.820312 68.574219 164.367188 68.90625 165.90625 C 69.238281 167.441406 69.617188 168.96875 70.046875 170.480469 C 70.476562 171.992188 70.953125 173.492188 71.472656 174.976562 C 71.996094 176.457031 72.566406 177.921875 73.183594 179.371094 C 73.796875 180.816406 74.457031 182.242188 75.164062 183.648438 C 75.867188 185.054688 76.617188 186.433594 77.410156 187.792969 C 78.203125 189.152344 79.035156 190.480469 79.914062 191.785156 C 80.789062 193.09375 81.707031 194.367188 82.664062 195.613281 C 83.621094 196.863281 84.613281 198.078125 85.648438 199.261719 C 86.683594 200.445312 87.75 201.59375 88.859375 202.710938 C 89.964844 203.828125 91.105469 204.90625 92.277344 205.949219 C 93.453125 206.996094 94.65625 208 95.894531 208.96875 C 97.132812 209.9375 98.398438 210.863281 99.695312 211.75 C 100.992188 212.636719 102.316406 213.484375 103.664062 214.285156 C 105.011719 215.089844 106.386719 215.851562 107.785156 216.566406 C 109.179688 217.285156 110.597656 217.957031 112.039062 218.582031 C 113.480469 219.210938 114.9375 219.789062 116.414062 220.324219 C 117.890625 220.859375 119.378906 221.347656 120.886719 221.785156 C 122.394531 222.226562 123.914062 222.617188 125.445312 222.960938 C 126.976562 223.304688 128.519531 223.601562 130.066406 223.847656 C 131.617188 224.09375 133.175781 224.289062 134.738281 224.4375 C 136.300781 224.585938 137.867188 224.683594 139.433594 224.730469 C 141.003906 224.78125 142.574219 224.78125 144.140625 224.730469 C 145.710938 224.679688 147.277344 224.578125 148.839844 224.429688 C 150.402344 224.277344 151.957031 224.078125 153.507812 223.832031 C 155.058594 223.582031 156.597656 223.285156 158.128906 222.9375 C 159.660156 222.59375 161.179688 222.199219 162.683594 221.757812 C 164.191406 221.3125 165.683594 220.824219 167.15625 220.289062 C 168.632812 219.75 170.089844 219.167969 171.527344 218.539062 C 172.96875 217.910156 174.382812 217.238281 175.78125 216.519531 C 177.175781 215.800781 178.550781 215.039062 179.898438 214.230469 C 181.246094 213.425781 182.566406 212.578125 183.863281 211.691406 C 185.15625 210.800781 186.421875 209.871094 187.65625 208.902344 C 188.894531 207.933594 190.097656 206.925781 191.269531 205.878906 C 192.445312 204.832031 193.582031 203.753906 194.6875 202.632812 C 195.792969 201.515625 196.859375 200.367188 197.890625 199.179688 C 198.921875 197.996094 199.917969 196.777344 200.871094 195.53125 C 201.828125 194.28125 202.742188 193.003906 203.617188 191.699219 C 204.492188 190.390625 205.324219 189.058594 206.113281 187.699219 C 206.902344 186.339844 207.652344 184.957031 208.355469 183.550781 C 209.058594 182.144531 209.714844 180.71875 210.328125 179.269531 C 210.941406 177.824219 211.507812 176.359375 212.03125 174.875 C 212.550781 173.390625 213.023438 171.890625 213.453125 170.378906 C 213.878906 168.863281 214.257812 167.339844 214.585938 165.800781 C 214.917969 164.261719 215.199219 162.714844 215.429688 161.160156 C 215.664062 159.605469 215.847656 158.042969 215.980469 156.476562 C 216.117188 154.910156 216.199219 153.339844 216.234375 151.765625 C 216.269531 150.195312 216.257812 148.621094 216.191406 147.050781 C 216.128906 145.476562 216.015625 143.910156 215.851562 142.347656 C 215.691406 140.78125 215.476562 139.222656 215.21875 137.671875 C 214.957031 136.121094 214.644531 134.582031 214.289062 133.050781 C 213.929688 131.515625 213.523438 130 213.070312 128.492188 C 212.617188 126.988281 212.113281 125.496094 211.566406 124.023438 C 211.019531 122.550781 210.425781 121.09375 209.785156 119.65625 C 209.144531 118.222656 208.460938 116.808594 207.734375 115.414062 C 207.003906 114.019531 206.234375 112.652344 205.417969 111.308594 C 204.601562 109.964844 203.746094 108.644531 202.847656 107.355469 C 201.949219 106.066406 201.011719 104.804688 200.035156 103.574219 C 199.054688 102.34375 198.039062 101.148438 196.988281 99.980469 C 195.933594 98.8125 194.84375 97.683594 193.71875 96.585938 Z M 192.90625 86.261719 L 175.296875 113.992188 L 165.230469 103.910156 Z M 141.640625 218.640625 C 140.339844 218.640625 139.039062 218.601562 137.742188 218.527344 C 136.441406 218.453125 135.144531 218.34375 133.851562 218.195312 C 132.558594 218.046875 131.273438 217.859375 129.992188 217.636719 C 128.707031 217.417969 127.433594 217.15625 126.167969 216.863281 C 124.898438 216.566406 123.640625 216.238281 122.390625 215.871094 C 121.144531 215.503906 119.90625 215.101562 118.679688 214.664062 C 117.457031 214.226562 116.242188 213.753906 115.042969 213.246094 C 113.847656 212.738281 112.664062 212.199219 111.496094 211.621094 C 110.328125 211.046875 109.175781 210.441406 108.042969 209.800781 C 106.910156 209.160156 105.796875 208.488281 104.699219 207.78125 C 103.605469 207.078125 102.53125 206.34375 101.476562 205.578125 C 100.425781 204.8125 99.394531 204.015625 98.386719 203.191406 C 97.378906 202.367188 96.394531 201.515625 95.4375 200.632812 C 94.476562 199.753906 93.542969 198.84375 92.636719 197.910156 C 91.726562 196.976562 90.847656 196.015625 89.996094 195.03125 C 89.140625 194.046875 88.316406 193.039062 87.519531 192.007812 C 86.726562 190.976562 85.960938 189.921875 85.226562 188.847656 C 84.488281 187.769531 83.785156 186.675781 83.113281 185.558594 C 82.4375 184.445312 81.796875 183.308594 81.1875 182.15625 C 80.582031 181.003906 80.003906 179.835938 79.464844 178.648438 C 78.921875 177.464844 78.414062 176.265625 77.941406 175.050781 C 77.464844 173.835938 77.027344 172.609375 76.625 171.371094 C 76.21875 170.128906 75.851562 168.878906 75.519531 167.621094 C 75.1875 166.359375 74.890625 165.089844 74.628906 163.8125 C 74.371094 162.535156 74.144531 161.25 73.957031 159.960938 C 73.769531 158.667969 73.621094 157.375 73.507812 156.078125 C 73.394531 154.777344 73.316406 153.476562 73.277344 152.171875 C 73.238281 150.871094 73.238281 149.566406 73.273438 148.261719 C 73.304688 146.960938 73.378906 145.65625 73.488281 144.359375 C 73.597656 143.058594 73.742188 141.765625 73.925781 140.472656 C 74.109375 139.183594 74.328125 137.898438 74.582031 136.617188 C 74.839844 135.339844 75.132812 134.070312 75.460938 132.808594 C 75.789062 131.546875 76.152344 130.296875 76.550781 129.054688 C 76.949219 127.8125 77.382812 126.585938 77.855469 125.371094 C 78.324219 124.152344 78.828125 122.953125 79.367188 121.765625 C 79.902344 120.578125 80.472656 119.40625 81.078125 118.25 C 81.683594 117.097656 82.320312 115.960938 82.988281 114.84375 C 83.660156 113.722656 84.359375 112.625 85.089844 111.546875 C 85.824219 110.46875 86.585938 109.414062 87.378906 108.378906 C 88.167969 107.34375 88.992188 106.332031 89.839844 105.34375 C 90.6875 104.359375 91.566406 103.394531 92.472656 102.457031 C 93.375 101.519531 94.304688 100.609375 95.261719 99.726562 C 96.21875 98.839844 97.199219 97.984375 98.203125 97.15625 C 99.207031 96.328125 100.238281 95.53125 101.289062 94.761719 C 102.335938 93.992188 103.410156 93.253906 104.5 92.546875 C 105.59375 91.835938 106.707031 91.160156 107.835938 90.515625 C 108.96875 89.871094 110.117188 89.261719 111.28125 88.679688 C 112.449219 88.101562 113.628906 87.558594 114.828125 87.046875 C 116.023438 86.535156 117.234375 86.058594 118.457031 85.617188 C 119.683594 85.175781 120.917969 84.769531 122.167969 84.398438 C 123.414062 84.023438 124.671875 83.691406 125.9375 83.390625 C 127.203125 83.089844 128.476562 82.828125 129.757812 82.601562 C 131.039062 82.375 132.328125 82.183594 133.617188 82.03125 C 134.910156 81.878906 136.207031 81.761719 137.503906 81.683594 C 138.804688 81.605469 140.105469 81.5625 141.40625 81.558594 C 142.707031 81.554688 144.007812 81.585938 145.304688 81.65625 C 146.605469 81.726562 147.902344 81.835938 149.195312 81.976562 C 150.488281 82.121094 151.773438 82.304688 153.058594 82.519531 C 154.339844 82.738281 155.617188 82.992188 156.886719 83.28125 C 158.152344 83.574219 159.414062 83.898438 160.664062 84.261719 C 161.914062 84.625 163.152344 85.023438 164.378906 85.457031 C 165.605469 85.890625 166.820312 86.359375 168.019531 86.859375 C 169.21875 87.363281 170.40625 87.902344 171.574219 88.472656 C 172.746094 89.042969 173.898438 89.644531 175.03125 90.28125 L 158.625 100.746094 C 158.429688 100.871094 158.246094 101.019531 158.085938 101.183594 C 157.921875 101.351562 157.777344 101.53125 157.652344 101.730469 C 157.53125 101.929688 157.429688 102.136719 157.355469 102.359375 C 157.28125 102.578125 157.230469 102.804688 157.203125 103.035156 C 157.179688 103.269531 157.179688 103.5 157.207031 103.730469 C 157.230469 103.964844 157.285156 104.1875 157.359375 104.410156 C 157.4375 104.628906 157.539062 104.839844 157.664062 105.035156 C 157.785156 105.234375 157.929688 105.414062 158.097656 105.578125 L 173.640625 121.15625 C 173.804688 121.320312 173.984375 121.464844 174.183594 121.589844 C 174.378906 121.714844 174.589844 121.816406 174.808594 121.894531 C 175.027344 121.972656 175.253906 122.023438 175.484375 122.050781 C 175.714844 122.078125 175.945312 122.078125 176.179688 122.050781 C 176.410156 122.027344 176.636719 121.976562 176.855469 121.898438 C 177.074219 121.824219 177.285156 121.722656 177.480469 121.601562 C 177.679688 121.476562 177.859375 121.332031 178.027344 121.167969 C 178.191406 121.003906 178.335938 120.824219 178.460938 120.628906 L 190.3125 101.960938 C 191.488281 103.15625 192.621094 104.394531 193.707031 105.671875 C 194.789062 106.949219 195.828125 108.265625 196.816406 109.617188 C 197.804688 110.972656 198.742188 112.359375 199.632812 113.785156 C 200.519531 115.207031 201.351562 116.660156 202.132812 118.144531 C 202.914062 119.628906 203.640625 121.140625 204.308594 122.679688 C 204.980469 124.21875 205.589844 125.777344 206.148438 127.359375 C 206.703125 128.945312 207.199219 130.542969 207.636719 132.164062 C 208.074219 133.785156 208.453125 135.417969 208.773438 137.066406 C 209.089844 138.710938 209.347656 140.367188 209.546875 142.035156 C 209.742188 143.703125 209.878906 145.371094 209.953125 147.050781 C 210.027344 148.726562 210.039062 150.402344 209.992188 152.078125 C 209.945312 153.757812 209.832031 155.429688 209.664062 157.097656 C 209.492188 158.769531 209.261719 160.429688 208.96875 162.082031 C 208.675781 163.734375 208.320312 165.375 207.910156 167 C 207.496094 168.625 207.023438 170.234375 206.492188 171.824219 C 205.960938 173.417969 205.375 174.988281 204.726562 176.535156 C 204.082031 178.082031 203.382812 179.605469 202.625 181.101562 C 201.867188 182.597656 201.054688 184.066406 200.191406 185.503906 C 199.324219 186.9375 198.410156 188.34375 197.441406 189.710938 C 196.472656 191.082031 195.457031 192.414062 194.390625 193.707031 C 193.328125 195.003906 192.214844 196.257812 191.058594 197.46875 C 189.902344 198.679688 188.699219 199.851562 187.457031 200.972656 C 186.214844 202.097656 184.933594 203.175781 183.609375 204.207031 C 182.289062 205.238281 180.929688 206.214844 179.539062 207.148438 C 178.144531 208.078125 176.71875 208.953125 175.261719 209.78125 C 173.800781 210.605469 172.316406 211.375 170.800781 212.089844 C 169.285156 212.808594 167.746094 213.464844 166.183594 214.070312 C 164.621094 214.671875 163.039062 215.214844 161.4375 215.703125 C 159.835938 216.1875 158.214844 216.613281 156.582031 216.980469 C 154.949219 217.347656 153.304688 217.65625 151.648438 217.898438 C 149.992188 218.144531 148.328125 218.332031 146.65625 218.453125 C 144.988281 218.578125 143.316406 218.640625 141.640625 218.640625 Z M 141.640625 218.640625 " fill-opacity="1" fill-rule="nonzero"/><path fill="#ffffff" d="M 98.117188 168.792969 L 98.117188 153.214844 C 98.117188 152.800781 98.039062 152.40625 97.878906 152.023438 C 97.722656 151.640625 97.496094 151.304688 97.207031 151.011719 C 96.914062 150.71875 96.578125 150.496094 96.199219 150.335938 C 95.816406 150.179688 95.421875 150.097656 95.007812 150.097656 L 85.679688 150.097656 L 85.679688 140.753906 L 98.117188 140.753906 L 98.117188 134.523438 L 82.570312 134.523438 C 82.160156 134.523438 81.761719 134.601562 81.382812 134.757812 C 81 134.917969 80.664062 135.140625 80.375 135.433594 C 80.082031 135.726562 79.859375 136.0625 79.699219 136.445312 C 79.542969 136.828125 79.464844 137.222656 79.464844 137.636719 L 79.464844 153.214844 C 79.464844 153.628906 79.542969 154.027344 79.699219 154.40625 C 79.859375 154.789062 80.082031 155.125 80.375 155.417969 C 80.664062 155.710938 81 155.933594 81.382812 156.09375 C 81.761719 156.25 82.160156 156.332031 82.570312 156.332031 L 91.898438 156.332031 L 91.898438 165.675781 L 79.464844 165.675781 L 79.464844 171.90625 L 95.007812 171.90625 C 95.421875 171.90625 95.816406 171.828125 96.199219 171.671875 C 96.578125 171.511719 96.914062 171.289062 97.207031 170.996094 C 97.496094 170.703125 97.722656 170.367188 97.878906 169.984375 C 98.039062 169.601562 98.117188 169.207031 98.117188 168.792969 Z M 98.117188 168.792969 " fill-opacity="1" fill-rule="nonzero"/><path fill="#ffffff" d="M 104.335938 134.523438 L 104.335938 171.90625 L 110.550781 171.90625 L 110.550781 154.675781 L 115.082031 150.890625 L 126.433594 173.316406 L 131.976562 170.5 L 119.980469 146.800781 L 128.085938 140.035156 L 124.105469 135.242188 L 110.550781 146.5625 L 110.550781 134.523438 Z M 104.335938 134.523438 " fill-opacity="1" fill-rule="nonzero"/><path fill="#ffffff" d="M 154.078125 140.753906 L 154.078125 134.523438 L 135.421875 134.523438 L 135.421875 140.753906 L 141.640625 140.753906 L 141.640625 165.675781 L 135.421875 165.675781 L 135.421875 171.90625 L 154.078125 171.90625 L 154.078125 165.675781 L 147.859375 165.675781 L 147.859375 140.753906 Z M 154.078125 140.753906 " fill-opacity="1" fill-rule="nonzero"/><path fill="#ffffff" d="M 163.402344 171.90625 L 178.945312 171.90625 L 178.945312 165.675781 L 166.511719 165.675781 L 166.511719 134.523438 L 160.292969 134.523438 L 160.292969 168.792969 C 160.292969 169.207031 160.371094 169.601562 160.53125 169.984375 C 160.6875 170.367188 160.914062 170.703125 161.203125 170.996094 C 161.496094 171.289062 161.832031 171.511719 162.214844 171.671875 C 162.59375 171.828125 162.992188 171.90625 163.402344 171.90625 Z M 163.402344 171.90625 " fill-opacity="1" fill-rule="nonzero"/><path fill="#ffffff" d="M 191.382812 134.523438 L 185.164062 134.523438 L 185.164062 168.792969 C 185.164062 169.207031 185.242188 169.601562 185.402344 169.984375 C 185.558594 170.367188 185.785156 170.703125 186.074219 170.996094 C 186.367188 171.289062 186.703125 171.511719 187.085938 171.671875 C 187.464844 171.828125 187.863281 171.90625 188.273438 171.90625 L 203.816406 171.90625 L 203.816406 165.675781 L 191.382812 165.675781 Z M 191.382812 134.523438 " fill-opacity="1" fill-rule="nonzero"/><path fill="#ffffff" d="M 141.640625 97.136719 C 146.632812 97.132812 151.527344 97.824219 156.324219 99.203125 L 158.046875 93.21875 C 156.257812 92.699219 154.445312 92.269531 152.617188 91.925781 C 150.785156 91.582031 148.941406 91.324219 147.089844 91.152344 C 145.234375 90.984375 143.375 90.898438 141.511719 90.90625 C 139.648438 90.910156 137.792969 91.003906 135.9375 91.1875 C 134.085938 91.367188 132.242188 91.636719 130.414062 91.992188 C 128.585938 92.347656 126.78125 92.789062 124.992188 93.316406 C 123.207031 93.84375 121.449219 94.453125 119.71875 95.144531 C 117.988281 95.839844 116.296875 96.613281 114.640625 97.464844 C 112.984375 98.320312 111.371094 99.25 109.804688 100.253906 C 108.234375 101.261719 106.714844 102.339844 105.25 103.488281 C 103.78125 104.636719 102.371094 105.855469 101.019531 107.136719 C 99.667969 108.421875 98.378906 109.765625 97.152344 111.167969 C 95.925781 112.574219 94.769531 114.035156 93.679688 115.550781 C 92.59375 117.0625 91.578125 118.625 90.636719 120.238281 C 89.695312 121.847656 88.832031 123.5 88.046875 125.191406 C 87.261719 126.882812 86.558594 128.609375 85.9375 130.371094 L 91.796875 132.445312 C 92.25 131.164062 92.75 129.902344 93.300781 128.660156 C 93.851562 127.417969 94.449219 126.199219 95.09375 125.003906 C 95.738281 123.808594 96.425781 122.636719 97.160156 121.496094 C 97.894531 120.351562 98.667969 119.238281 99.488281 118.15625 C 100.308594 117.074219 101.164062 116.023438 102.066406 115.007812 C 102.964844 113.988281 103.902344 113.007812 104.875 112.0625 C 105.851562 111.117188 106.859375 110.210938 107.902344 109.34375 C 108.949219 108.476562 110.023438 107.652344 111.128906 106.867188 C 112.238281 106.082031 113.375 105.34375 114.539062 104.644531 C 115.703125 103.949219 116.890625 103.296875 118.105469 102.691406 C 119.320312 102.085938 120.554688 101.53125 121.8125 101.019531 C 123.066406 100.507812 124.34375 100.046875 125.632812 99.636719 C 126.925781 99.222656 128.230469 98.863281 129.550781 98.550781 C 130.871094 98.238281 132.203125 97.976562 133.542969 97.769531 C 134.882812 97.558594 136.226562 97.402344 137.578125 97.296875 C 138.929688 97.191406 140.285156 97.136719 141.640625 97.136719 Z M 141.640625 97.136719 " fill-opacity="1" fill-rule="nonzero"/><path fill="#ffffff" d="M 141.640625 203.0625 C 139.332031 203.058594 137.03125 202.902344 134.746094 202.597656 C 132.457031 202.292969 130.195312 201.839844 127.96875 201.238281 C 125.738281 200.636719 123.554688 199.894531 121.421875 199.007812 C 119.289062 198.121094 117.222656 197.101562 115.222656 195.941406 C 113.226562 194.785156 111.308594 193.503906 109.476562 192.097656 C 107.644531 190.691406 105.910156 189.167969 104.273438 187.535156 C 102.640625 185.898438 101.121094 184.167969 99.710938 182.332031 C 98.300781 180.5 97.019531 178.582031 95.859375 176.582031 L 90.476562 179.695312 C 91.121094 180.816406 91.800781 181.910156 92.515625 182.984375 C 93.234375 184.058594 93.984375 185.109375 94.769531 186.132812 C 95.554688 187.160156 96.371094 188.15625 97.222656 189.128906 C 98.074219 190.101562 98.953125 191.042969 99.867188 191.957031 C 100.777344 192.867188 101.71875 193.75 102.6875 194.601562 C 103.65625 195.453125 104.652344 196.273438 105.675781 197.058594 C 106.699219 197.847656 107.746094 198.597656 108.820312 199.316406 C 109.890625 200.035156 110.984375 200.714844 112.101562 201.363281 C 113.21875 202.007812 114.355469 202.617188 115.511719 203.1875 C 116.667969 203.757812 117.84375 204.292969 119.035156 204.785156 C 120.222656 205.28125 121.429688 205.734375 122.652344 206.148438 C 123.871094 206.566406 125.105469 206.941406 126.351562 207.273438 C 127.597656 207.609375 128.851562 207.902344 130.117188 208.152344 C 131.378906 208.40625 132.652344 208.617188 133.929688 208.785156 C 135.207031 208.953125 136.492188 209.078125 137.777344 209.164062 C 139.0625 209.25 140.351562 209.289062 141.640625 209.289062 C 142.929688 209.289062 144.21875 209.25 145.503906 209.164062 C 146.789062 209.078125 148.074219 208.953125 149.351562 208.785156 C 150.628906 208.617188 151.902344 208.40625 153.164062 208.152344 C 154.429688 207.902344 155.683594 207.609375 156.929688 207.273438 C 158.175781 206.941406 159.410156 206.566406 160.628906 206.148438 C 161.851562 205.734375 163.058594 205.28125 164.25 204.785156 C 165.4375 204.292969 166.613281 203.757812 167.769531 203.1875 C 168.925781 202.617188 170.0625 202.007812 171.179688 201.363281 C 172.296875 200.714844 173.390625 200.035156 174.460938 199.316406 C 175.535156 198.597656 176.582031 197.847656 177.605469 197.058594 C 178.628906 196.273438 179.625 195.453125 180.59375 194.601562 C 181.5625 193.75 182.503906 192.867188 183.414062 191.957031 C 184.328125 191.042969 185.207031 190.101562 186.058594 189.128906 C 186.910156 188.15625 187.726562 187.160156 188.511719 186.132812 C 189.296875 185.109375 190.046875 184.058594 190.765625 182.984375 C 191.480469 181.910156 192.160156 180.816406 192.804688 179.695312 L 187.421875 176.582031 C 186.261719 178.582031 184.980469 180.5 183.570312 182.332031 C 182.164062 184.167969 180.640625 185.898438 179.007812 187.535156 C 177.371094 189.167969 175.636719 190.691406 173.804688 192.097656 C 171.972656 193.503906 170.058594 194.785156 168.058594 195.941406 C 166.058594 197.101562 163.992188 198.121094 161.859375 199.007812 C 159.726562 199.894531 157.542969 200.636719 155.316406 201.238281 C 153.085938 201.839844 150.824219 202.292969 148.539062 202.597656 C 146.25 202.902344 143.949219 203.058594 141.640625 203.0625 Z M 141.640625 203.0625 " fill-opacity="1" fill-rule="nonzero"/></svg>