<svg xmlns="http://www.w3.org/2000/svg" xmlns:xlink="http://www.w3.org/1999/xlink" width="377" zoomAndPan="magnify" viewBox="0 0 283.5 283.500005" height="377" preserveAspectRatio="xMidYMid meet" version="1.0"><defs><clipPath id="d43413a67d"><path d="M 0 0 L 283 0 L 283 283 L 0 283 Z M 0 0 " clip-rule="nonzero"/></clipPath><clipPath id="3801c6e7da"><path d="M 141.730469 0 C 63.457031 0 0 63.457031 0 141.730469 C 0 220.007812 63.457031 283.464844 141.730469 283.464844 C 220.007812 283.464844 283.464844 220.007812 283.464844 141.730469 C 283.464844 63.457031 220.007812 0 141.730469 0 Z M 141.730469 0 " clip-rule="nonzero"/></clipPath><clipPath id="2cc567a50e"><path d="M 49.355469 101 L 233.855469 101 L 233.855469 128 L 49.355469 128 Z M 49.355469 101 " clip-rule="nonzero"/></clipPath><clipPath id="17ba1bcf51"><path d="M 49.355469 120 L 233.855469 120 L 233.855469 147 L 49.355469 147 Z M 49.355469 120 " clip-rule="nonzero"/></clipPath><clipPath id="3bb0ea79c6"><path d="M 49.355469 139 L 233.855469 139 L 233.855469 166 L 49.355469 166 Z M 49.355469 139 " clip-rule="nonzero"/></clipPath><clipPath id="1dc2a70ee1"><path d="M 49.355469 158 L 233.855469 158 L 233.855469 185 L 49.355469 185 Z M 49.355469 158 " clip-rule="nonzero"/></clipPath></defs><g clip-path="url(#d43413a67d)"><g clip-path="url(#3801c6e7da)"><path fill="#97c9ce" d="M 0 0 L 283.464844 0 L 283.464844 283.464844 L 0 283.464844 Z M 0 0 " fill-opacity="1" fill-rule="nonzero"/></g></g><g clip-path="url(#2cc567a50e)"><path fill="#ffffff" d="M 55.003906 116.707031 C 55.238281 116.535156 78.289062 99.566406 95.121094 116.414062 C 115.785156 137.089844 143.226562 116.910156 143.5 116.707031 C 143.617188 116.621094 143.730469 116.519531 143.832031 116.417969 C 144.648438 115.605469 164.035156 96.820312 183.613281 116.414062 C 191.683594 124.488281 199.785156 127.175781 207.003906 127.175781 C 221.328125 127.175781 232.171875 116.574219 232.332031 116.414062 C 233.5625 115.179688 233.5625 113.179688 232.335938 111.949219 C 231.101562 110.714844 229.105469 110.703125 227.867188 111.933594 C 227.050781 112.746094 207.660156 131.535156 188.082031 111.941406 C 165.203125 89.042969 142.023438 109.453125 139.574219 111.742188 C 137.699219 113.082031 115.765625 128.136719 99.589844 111.941406 C 78.929688 91.265625 51.488281 111.441406 51.214844 111.648438 C 49.816406 112.695312 49.535156 114.675781 50.582031 116.070312 C 51.628906 117.476562 53.609375 117.757812 55.003906 116.707031 Z M 55.003906 116.707031 " fill-opacity="1" fill-rule="nonzero"/></g><g clip-path="url(#17ba1bcf51)"><path fill="#ffffff" d="M 227.867188 130.910156 C 227.054688 131.722656 207.664062 150.511719 188.085938 130.917969 C 165.203125 108.023438 142.027344 128.429688 139.578125 130.71875 C 137.703125 132.0625 115.769531 147.109375 99.589844 130.917969 C 78.929688 110.238281 51.488281 130.421875 51.214844 130.625 C 49.816406 131.671875 49.535156 133.652344 50.582031 135.046875 C 51.628906 136.449219 53.605469 136.730469 55.003906 135.679688 C 55.238281 135.507812 78.289062 118.542969 95.121094 135.386719 C 115.785156 156.066406 143.226562 135.886719 143.5 135.679688 C 143.617188 135.59375 143.730469 135.492188 143.832031 135.394531 C 144.648438 134.578125 164.035156 115.792969 183.613281 135.386719 C 191.683594 143.460938 199.785156 146.148438 207.003906 146.148438 C 221.328125 146.148438 232.171875 135.546875 232.332031 135.386719 C 233.5625 134.152344 233.5625 132.152344 232.335938 130.921875 C 231.105469 129.691406 229.109375 129.679688 227.867188 130.910156 Z M 227.867188 130.910156 " fill-opacity="1" fill-rule="nonzero"/></g><g clip-path="url(#3bb0ea79c6)"><path fill="#ffffff" d="M 227.867188 149.886719 C 227.054688 150.695312 207.664062 169.484375 188.085938 149.894531 C 165.203125 127 142.027344 147.40625 139.578125 149.695312 C 137.703125 151.035156 115.769531 166.085938 99.589844 149.894531 C 78.929688 129.210938 51.488281 149.394531 51.214844 149.597656 C 49.816406 150.644531 49.535156 152.628906 50.582031 154.023438 C 51.628906 155.425781 53.605469 155.707031 55.003906 154.65625 C 55.238281 154.484375 78.289062 137.519531 95.121094 154.363281 C 115.785156 175.042969 143.226562 154.859375 143.5 154.65625 C 143.617188 154.570312 143.730469 154.46875 143.832031 154.367188 C 144.648438 153.554688 164.035156 134.769531 183.613281 154.363281 C 191.683594 162.4375 199.785156 165.125 207.003906 165.125 C 221.328125 165.125 232.171875 154.523438 232.332031 154.363281 C 233.5625 153.128906 233.5625 151.132812 232.335938 149.898438 C 231.105469 148.667969 229.109375 148.65625 227.867188 149.886719 Z M 227.867188 149.886719 " fill-opacity="1" fill-rule="nonzero"/></g><g clip-path="url(#1dc2a70ee1)"><path fill="#ffffff" d="M 227.867188 168.863281 C 227.054688 169.671875 207.664062 188.460938 188.085938 168.871094 C 165.203125 145.972656 142.027344 166.378906 139.578125 168.671875 C 137.703125 170.011719 115.769531 185.066406 99.589844 168.871094 C 78.929688 148.191406 51.488281 168.371094 51.214844 168.574219 C 49.816406 169.621094 49.535156 171.605469 50.582031 173 C 51.628906 174.402344 53.605469 174.683594 55.003906 173.632812 C 55.238281 173.460938 78.289062 156.492188 95.121094 173.339844 C 115.785156 194.015625 143.226562 173.835938 143.5 173.632812 C 143.617188 173.546875 143.730469 173.445312 143.832031 173.34375 C 144.648438 172.53125 164.035156 153.746094 183.613281 173.339844 C 191.683594 181.414062 199.785156 184.101562 207.003906 184.101562 C 221.328125 184.101562 232.171875 173.5 232.332031 173.339844 C 233.5625 172.105469 233.5625 170.109375 232.335938 168.871094 C 231.105469 167.640625 229.109375 167.632812 227.867188 168.863281 Z M 227.867188 168.863281 " fill-opacity="1" fill-rule="nonzero"/></g></svg>