<svg xmlns="http://www.w3.org/2000/svg" xmlns:xlink="http://www.w3.org/1999/xlink" width="377" zoomAndPan="magnify" viewBox="0 0 283.5 283.500005" height="377" preserveAspectRatio="xMidYMid meet" version="1.0"><defs><clipPath id="bf661528a7"><path d="M 0 0 L 283 0 L 283 283 L 0 283 Z M 0 0 " clip-rule="nonzero"/></clipPath><clipPath id="d61b028dbf"><path d="M 141.730469 0 C 63.457031 0 0 63.457031 0 141.730469 C 0 220.007812 63.457031 283.464844 141.730469 283.464844 C 220.007812 283.464844 283.464844 220.007812 283.464844 141.730469 C 283.464844 63.457031 220.007812 0 141.730469 0 Z M 141.730469 0 " clip-rule="nonzero"/></clipPath><clipPath id="c995866924"><path d="M 56.132812 56.132812 L 227.132812 56.132812 L 227.132812 227.132812 L 56.132812 227.132812 Z M 56.132812 56.132812 " clip-rule="nonzero"/></clipPath></defs><g clip-path="url(#bf661528a7)"><g clip-path="url(#d61b028dbf)"><path fill="#97c9ce" d="M 0 0 L 283.464844 0 L 283.464844 283.464844 L 0 283.464844 Z M 0 0 " fill-opacity="1" fill-rule="nonzero"/></g></g><g clip-path="url(#c995866924)"><path fill="#ffffff" d="M 226.085938 140.378906 L 221.480469 139.511719 C 220.9375 118.785156 212.457031 100.003906 198.976562 86.089844 L 204.914062 80.152344 C 205.410156 79.65625 205.410156 78.847656 204.914062 78.347656 C 204.414062 77.851562 203.609375 77.851562 203.109375 78.347656 L 197.171875 84.285156 C 183.257812 70.804688 164.476562 62.324219 143.75 61.785156 L 142.886719 57.175781 C 142.886719 57.175781 142.882812 57.171875 142.882812 57.167969 C 142.878906 57.140625 142.867188 57.109375 142.859375 57.082031 C 142.84375 57.035156 142.832031 56.984375 142.8125 56.9375 C 142.800781 56.910156 142.789062 56.882812 142.773438 56.855469 C 142.75 56.8125 142.730469 56.769531 142.707031 56.730469 C 142.6875 56.703125 142.667969 56.675781 142.648438 56.652344 C 142.621094 56.613281 142.59375 56.578125 142.5625 56.546875 C 142.539062 56.523438 142.515625 56.5 142.492188 56.476562 C 142.460938 56.445312 142.425781 56.417969 142.386719 56.390625 C 142.363281 56.371094 142.335938 56.351562 142.308594 56.335938 C 142.269531 56.3125 142.226562 56.289062 142.1875 56.269531 C 142.15625 56.253906 142.128906 56.242188 142.101562 56.230469 C 142.050781 56.210938 142.003906 56.195312 141.953125 56.183594 C 141.925781 56.175781 141.902344 56.167969 141.875 56.160156 C 141.792969 56.148438 141.714844 56.136719 141.632812 56.136719 C 141.550781 56.136719 141.46875 56.144531 141.390625 56.160156 C 141.363281 56.167969 141.335938 56.175781 141.308594 56.183594 C 141.261719 56.195312 141.210938 56.210938 141.164062 56.230469 C 141.132812 56.242188 141.105469 56.253906 141.078125 56.269531 C 141.035156 56.289062 140.996094 56.3125 140.957031 56.335938 C 140.929688 56.351562 140.902344 56.371094 140.875 56.390625 C 140.839844 56.417969 140.804688 56.445312 140.769531 56.476562 C 140.746094 56.5 140.722656 56.523438 140.703125 56.542969 C 140.671875 56.578125 140.640625 56.617188 140.613281 56.652344 C 140.59375 56.679688 140.574219 56.703125 140.558594 56.726562 C 140.53125 56.769531 140.511719 56.8125 140.488281 56.855469 C 140.476562 56.882812 140.460938 56.910156 140.449219 56.9375 C 140.429688 56.984375 140.417969 57.039062 140.402344 57.089844 C 140.394531 57.117188 140.386719 57.140625 140.382812 57.167969 C 140.378906 57.171875 140.378906 57.171875 140.378906 57.175781 L 139.511719 61.78125 C 118.785156 62.324219 100.003906 70.804688 86.089844 84.285156 L 80.152344 78.347656 C 79.65625 77.851562 78.847656 77.851562 78.351562 78.347656 C 77.851562 78.847656 77.851562 79.652344 78.351562 80.152344 L 84.289062 86.089844 C 70.808594 100 62.328125 118.785156 61.785156 139.511719 L 57.179688 140.375 C 56.578125 140.488281 56.140625 141.015625 56.140625 141.628906 C 56.140625 142.242188 56.578125 142.769531 57.179688 142.882812 L 61.785156 143.75 C 62.328125 164.476562 70.808594 183.257812 84.289062 197.171875 L 78.351562 203.109375 C 77.851562 203.609375 77.851562 204.414062 78.351562 204.914062 C 78.597656 205.164062 78.925781 205.285156 79.25 205.285156 C 79.578125 205.285156 79.90625 205.164062 80.152344 204.914062 L 86.089844 198.976562 C 100.003906 212.457031 118.785156 220.9375 139.511719 221.480469 L 140.378906 226.085938 C 140.378906 226.089844 140.378906 226.09375 140.378906 226.09375 C 140.386719 226.121094 140.394531 226.148438 140.402344 226.171875 C 140.414062 226.222656 140.429688 226.277344 140.449219 226.324219 C 140.460938 226.351562 140.476562 226.378906 140.488281 226.40625 C 140.511719 226.449219 140.53125 226.492188 140.558594 226.535156 C 140.574219 226.558594 140.59375 226.582031 140.613281 226.609375 C 140.640625 226.648438 140.667969 226.683594 140.703125 226.71875 C 140.722656 226.742188 140.746094 226.761719 140.769531 226.785156 C 140.800781 226.816406 140.839844 226.84375 140.875 226.871094 C 140.902344 226.890625 140.925781 226.910156 140.953125 226.925781 C 140.992188 226.949219 141.035156 226.972656 141.074219 226.992188 C 141.105469 227.003906 141.132812 227.019531 141.164062 227.03125 C 141.210938 227.050781 141.257812 227.066406 141.308594 227.078125 C 141.335938 227.085938 141.363281 227.09375 141.390625 227.101562 C 141.46875 227.113281 141.546875 227.125 141.628906 227.125 C 141.714844 227.125 141.792969 227.117188 141.871094 227.101562 C 141.898438 227.09375 141.925781 227.085938 141.953125 227.078125 C 142.003906 227.066406 142.050781 227.050781 142.097656 227.03125 C 142.128906 227.019531 142.15625 227.007812 142.1875 226.992188 C 142.226562 226.972656 142.269531 226.949219 142.308594 226.925781 C 142.335938 226.910156 142.359375 226.890625 142.386719 226.871094 C 142.421875 226.84375 142.460938 226.816406 142.492188 226.785156 C 142.515625 226.761719 142.539062 226.738281 142.558594 226.71875 C 142.589844 226.683594 142.621094 226.648438 142.648438 226.609375 C 142.667969 226.585938 142.6875 226.558594 142.703125 226.53125 C 142.730469 226.492188 142.75 226.449219 142.769531 226.40625 C 142.785156 226.378906 142.800781 226.351562 142.8125 226.324219 C 142.832031 226.277344 142.84375 226.226562 142.855469 226.179688 C 142.863281 226.152344 142.875 226.121094 142.882812 226.09375 C 142.882812 226.089844 142.882812 226.085938 142.882812 226.085938 L 143.75 221.480469 C 164.476562 220.9375 183.257812 212.457031 197.171875 198.976562 L 203.109375 204.914062 C 203.355469 205.164062 203.683594 205.285156 204.007812 205.285156 C 204.335938 205.285156 204.664062 205.164062 204.910156 204.914062 C 205.410156 204.414062 205.410156 203.609375 204.910156 203.109375 L 198.976562 197.171875 C 212.453125 183.257812 220.933594 164.476562 221.476562 143.75 L 226.082031 142.886719 C 226.6875 142.773438 227.125 142.246094 227.125 141.632812 C 227.125 141.019531 226.6875 140.492188 226.085938 140.378906 Z M 145.746094 210.851562 L 154.335938 165.097656 L 182.773438 184.546875 C 182.992188 184.695312 183.242188 184.769531 183.492188 184.769531 C 183.820312 184.769531 184.148438 184.640625 184.394531 184.394531 C 184.828125 183.960938 184.890625 183.277344 184.542969 182.773438 L 165.097656 154.335938 L 210.851562 145.746094 C 208.796875 180.714844 180.714844 208.796875 145.746094 210.851562 Z M 72.410156 145.746094 L 118.164062 154.335938 L 98.714844 182.773438 C 98.371094 183.277344 98.433594 183.960938 98.867188 184.394531 C 99.300781 184.828125 99.984375 184.890625 100.488281 184.546875 L 128.925781 165.097656 L 137.515625 210.851562 C 102.550781 208.796875 74.464844 180.714844 72.410156 145.746094 Z M 137.519531 72.410156 L 128.929688 118.164062 L 100.488281 98.71875 C 99.984375 98.371094 99.300781 98.433594 98.867188 98.867188 C 98.433594 99.300781 98.371094 99.984375 98.71875 100.488281 L 118.164062 128.925781 L 72.410156 137.519531 C 74.464844 102.550781 102.550781 74.464844 137.519531 72.410156 Z M 210.851562 137.519531 L 165.097656 128.929688 L 184.546875 100.488281 C 184.890625 99.984375 184.828125 99.300781 184.394531 98.867188 C 183.960938 98.433594 183.277344 98.371094 182.773438 98.71875 L 154.335938 118.164062 L 145.746094 72.410156 C 180.714844 74.464844 208.796875 102.550781 210.851562 137.519531 Z M 210.960938 140.355469 L 144.710938 140.355469 L 155.367188 129.695312 L 210.957031 140.132812 C 210.960938 140.207031 210.960938 140.28125 210.960938 140.355469 Z M 156.035156 127.226562 L 154.847656 120.902344 L 178.605469 104.65625 L 162.359375 128.414062 Z M 153.566406 127.894531 L 142.90625 138.550781 L 142.90625 72.300781 C 142.980469 72.300781 143.054688 72.300781 143.128906 72.304688 Z M 140.355469 72.300781 L 140.355469 138.550781 L 129.695312 127.894531 L 140.132812 72.304688 C 140.207031 72.300781 140.28125 72.304688 140.355469 72.300781 Z M 120.902344 128.414062 L 104.65625 104.65625 L 128.414062 120.902344 L 127.226562 127.226562 Z M 127.894531 129.695312 L 138.550781 140.355469 L 72.300781 140.355469 C 72.300781 140.28125 72.300781 140.207031 72.304688 140.132812 Z M 72.300781 142.90625 L 138.550781 142.90625 L 127.894531 153.566406 L 72.304688 143.128906 C 72.300781 143.054688 72.304688 142.980469 72.300781 142.90625 Z M 127.226562 156.035156 L 128.414062 162.359375 L 104.65625 178.605469 L 120.902344 154.847656 Z M 129.695312 155.371094 L 140.355469 144.710938 L 140.355469 210.960938 C 140.28125 210.957031 140.207031 210.960938 140.132812 210.957031 Z M 142.90625 210.960938 L 142.90625 144.710938 L 153.554688 155.359375 C 153.558594 155.363281 153.5625 155.367188 153.566406 155.367188 L 143.128906 210.957031 C 143.054688 210.960938 142.980469 210.960938 142.90625 210.960938 Z M 162.359375 154.847656 L 178.605469 178.605469 L 154.847656 162.359375 L 156.035156 156.035156 Z M 155.367188 153.566406 C 155.367188 153.5625 155.363281 153.558594 155.359375 153.554688 L 144.710938 142.90625 L 210.960938 142.90625 C 210.960938 142.980469 210.960938 143.054688 210.957031 143.128906 Z M 218.90625 139.03125 L 213.4375 138.003906 C 212.542969 120.074219 205.046875 103.855469 193.339844 91.730469 L 197.171875 87.890625 C 210.085938 101.234375 218.25 119.199219 218.90625 139.03125 Z M 195.371094 86.089844 L 191.535156 89.925781 C 179.40625 78.21875 163.1875 70.722656 145.257812 69.824219 L 144.230469 64.355469 C 164.066406 65.015625 182.027344 73.175781 195.371094 86.089844 Z M 139.03125 64.355469 L 138.003906 69.824219 C 120.074219 70.71875 103.855469 78.21875 91.730469 89.925781 L 87.890625 86.089844 C 101.234375 73.175781 119.199219 65.015625 139.03125 64.355469 Z M 86.089844 87.890625 L 89.925781 91.726562 C 78.214844 103.855469 70.71875 120.074219 69.824219 138.003906 L 64.355469 139.03125 C 65.015625 119.199219 73.175781 101.234375 86.089844 87.890625 Z M 64.355469 144.230469 L 69.824219 145.257812 C 70.71875 163.1875 78.21875 179.40625 89.925781 191.535156 L 86.089844 195.371094 C 73.175781 182.027344 65.015625 164.066406 64.355469 144.230469 Z M 87.890625 197.175781 L 91.730469 193.339844 C 103.855469 205.046875 120.074219 212.542969 138.003906 213.4375 L 139.03125 218.90625 C 119.199219 218.25 101.234375 210.085938 87.890625 197.175781 Z M 144.230469 218.90625 L 145.257812 213.4375 C 163.1875 212.542969 179.40625 205.046875 191.535156 193.339844 L 195.367188 197.175781 C 182.027344 210.085938 164.066406 218.25 144.230469 218.90625 Z M 197.171875 195.371094 L 193.339844 191.535156 C 205.046875 179.40625 212.542969 163.1875 213.4375 145.257812 L 218.90625 144.230469 C 218.25 164.066406 210.085938 182.027344 197.171875 195.371094 Z M 197.171875 195.371094 " fill-opacity="1" fill-rule="nonzero"/></g></svg>