<svg xmlns="http://www.w3.org/2000/svg" xmlns:xlink="http://www.w3.org/1999/xlink" width="377" zoomAndPan="magnify" viewBox="0 0 283.5 283.500005" height="377" preserveAspectRatio="xMidYMid meet" version="1.0"><defs><clipPath id="e81fa3b8fe"><path d="M 0 0 L 283 0 L 283 283 L 0 283 Z M 0 0 " clip-rule="nonzero"/></clipPath><clipPath id="b0e6f05126"><path d="M 141.730469 0 C 63.457031 0 0 63.457031 0 141.730469 C 0 220.007812 63.457031 283.464844 141.730469 283.464844 C 220.007812 283.464844 283.464844 220.007812 283.464844 141.730469 C 283.464844 63.457031 220.007812 0 141.730469 0 Z M 141.730469 0 " clip-rule="nonzero"/></clipPath><clipPath id="ed413fa631"><path d="M 53 71.492188 L 132 71.492188 L 132 200 L 53 200 Z M 53 71.492188 " clip-rule="nonzero"/></clipPath><clipPath id="49ef16149c"><path d="M 135 133.414062 L 230.105469 133.414062 L 230.105469 170.347656 L 135 170.347656 Z M 135 133.414062 " clip-rule="nonzero"/></clipPath><clipPath id="4c463d1522"><path d="M 135 175.144531 L 187 175.144531 L 187 211.742188 L 135 211.742188 Z M 135 175.144531 " clip-rule="nonzero"/></clipPath></defs><g clip-path="url(#e81fa3b8fe)"><g clip-path="url(#b0e6f05126)"><path fill="#97c9ce" d="M 0 0 L 283.464844 0 L 283.464844 283.464844 L 0 283.464844 Z M 0 0 " fill-opacity="1" fill-rule="nonzero"/></g></g><g clip-path="url(#ed413fa631)"><path fill="#ffffff" d="M 56.121094 199.746094 C 55.140625 199.746094 54.191406 199.222656 53.6875 198.296875 C 52.960938 196.957031 53.460938 195.28125 54.804688 194.550781 C 61.089844 191.144531 70.753906 190.0625 75.953125 189.722656 C 84.105469 189.1875 92.515625 189.675781 98.441406 191.035156 C 108.277344 193.289062 114.421875 191.699219 115.339844 191.433594 C 117.960938 190.160156 118.675781 187.191406 117.742188 181.570312 C 117.222656 178.464844 118.257812 176.3125 119.214844 175.054688 C 120.238281 173.710938 121.410156 173.082031 121.636719 172.96875 C 121.6875 172.941406 121.742188 172.917969 121.792969 172.894531 C 122.640625 172.527344 123.613281 171.859375 123.960938 171.421875 C 122.988281 169.652344 121.074219 168.628906 121.054688 168.617188 C 120.070312 168.121094 119.472656 167.085938 119.539062 165.984375 C 119.609375 164.878906 120.324219 163.925781 121.363281 163.550781 C 123.503906 162.785156 124.546875 161.535156 124.914062 160.824219 C 123.089844 159.820312 121.257812 158.257812 120.257812 157.347656 C 119.589844 156.738281 119.039062 156.046875 118.628906 155.296875 C 117.433594 153.109375 117.53125 150.800781 118.898438 148.800781 C 119.90625 147.328125 121.460938 146.257812 122.703125 145.484375 C 122.960938 145.324219 123.21875 145.171875 123.46875 145.019531 C 125.628906 143.726562 125.851562 143.53125 125.5 141.871094 C 125.023438 139.632812 120.597656 134.003906 117.71875 130.847656 C 108.761719 122.296875 110.554688 114.109375 110.828125 113.082031 C 113.691406 101.925781 112.804688 93.128906 108.195312 86.925781 C 105.355469 83.105469 101.160156 80.289062 95.726562 78.550781 C 91.53125 77.214844 88.152344 77.0625 88.117188 77.0625 C 86.597656 77 85.410156 75.714844 85.46875 74.195312 C 85.527344 72.671875 86.808594 71.488281 88.328125 71.539062 C 88.96875 71.5625 104.132812 72.246094 112.597656 83.589844 C 118.277344 91.199219 119.480469 101.585938 116.175781 114.460938 C 116.160156 114.515625 116.164062 114.503906 116.152344 114.542969 C 116.039062 115.003906 114.863281 120.523438 121.589844 126.90625 C 121.636719 126.949219 121.679688 126.996094 121.726562 127.042969 C 121.808594 127.132812 123.734375 129.242188 125.800781 131.890625 C 128.78125 135.714844 130.453125 138.601562 130.902344 140.722656 C 132.085938 146.296875 128.609375 148.378906 126.308594 149.757812 C 126.082031 149.894531 125.847656 150.035156 125.617188 150.179688 C 125.199219 150.4375 123.9375 151.222656 123.457031 151.925781 C 123.300781 152.152344 123.246094 152.226562 123.476562 152.648438 C 123.59375 152.859375 123.761719 153.066406 123.976562 153.261719 C 125.488281 154.640625 126.980469 155.734375 127.972656 156.183594 C 129.667969 156.960938 130.671875 158.652344 130.59375 160.597656 C 130.503906 162.71875 129.214844 164.863281 127.191406 166.523438 C 127.875 167.277344 128.539062 168.183594 129.054688 169.246094 C 129.667969 170.515625 129.734375 171.882812 129.242188 173.199219 C 128.230469 175.890625 125.085938 177.476562 124.117188 177.910156 C 123.761719 178.136719 122.894531 178.890625 123.1875 180.660156 C 123.5625 182.910156 123.925781 185.855469 123.40625 188.695312 C 122.730469 192.371094 120.679688 195.082031 117.476562 196.53125 C 117.390625 196.570312 117.304688 196.605469 117.214844 196.632812 C 116.902344 196.742188 109.347656 199.203125 97.210938 196.421875 C 91.773438 195.175781 83.964844 194.734375 76.3125 195.238281 C 68.234375 195.765625 61.351562 197.289062 57.429688 199.410156 C 57.015625 199.636719 56.5625 199.746094 56.121094 199.746094 " fill-opacity="1" fill-rule="evenodd"/></g><path fill="#ffffff" d="M 82.75 124.847656 C 81.980469 124.847656 81.214844 124.527344 80.671875 123.898438 C 79.667969 122.75 79.785156 121.007812 80.933594 120.003906 C 81.558594 119.453125 87.234375 114.652344 92.910156 115.214844 C 95.332031 115.453125 97.429688 116.644531 98.976562 118.652344 C 99.910156 119.863281 99.683594 121.597656 98.472656 122.527344 C 97.265625 123.460938 95.53125 123.234375 94.601562 122.023438 C 93.972656 121.207031 93.285156 120.800781 92.367188 120.710938 C 89.542969 120.433594 85.691406 123.179688 84.566406 124.164062 C 84.042969 124.621094 83.394531 124.847656 82.75 124.847656 " fill-opacity="1" fill-rule="evenodd"/><g clip-path="url(#49ef16149c)"><path fill="#ffffff" d="M 168.199219 170.324219 C 151.542969 170.324219 138.023438 168.359375 137.429688 168.273438 C 135.921875 168.050781 134.878906 166.644531 135.101562 165.136719 C 135.320312 163.625 136.726562 162.582031 138.234375 162.804688 C 138.40625 162.832031 153.347656 164.996094 170.671875 164.78125 C 193.1875 164.507812 209.5 160.40625 217.84375 152.925781 C 222.609375 148.652344 224.808594 143.359375 224.566406 136.742188 C 224.511719 135.21875 225.699219 133.9375 227.222656 133.882812 C 228.753906 133.824219 230.027344 135.015625 230.085938 136.542969 C 230.386719 144.785156 227.507812 151.683594 221.527344 157.042969 C 216.222656 161.792969 208.421875 165.320312 198.339844 167.527344 C 190.46875 169.246094 181.160156 170.183594 170.664062 170.308594 C 169.835938 170.316406 169.011719 170.324219 168.199219 170.324219 " fill-opacity="1" fill-rule="evenodd"/></g><path fill="#ffffff" d="M 137.828125 156.882812 C 136.367188 156.882812 135.148438 155.734375 135.074219 154.253906 C 135 152.730469 136.175781 151.433594 137.695312 151.359375 C 146.402344 150.925781 170.632812 148.421875 178.082031 142.082031 C 180.976562 139.621094 180.429688 138.027344 180.25 137.503906 C 179.417969 135.070312 175.695312 133.101562 173.6875 133.011719 C 172.164062 132.945312 170.984375 131.65625 171.050781 130.128906 C 171.117188 128.605469 172.410156 127.425781 173.933594 127.492188 C 175.976562 127.582031 178.367188 128.421875 180.496094 129.796875 C 182.941406 131.375 184.707031 133.476562 185.476562 135.714844 C 186.203125 137.832031 186.671875 142.023438 181.660156 146.289062 C 177.199219 150.085938 168.429688 153.019531 155.597656 155.007812 C 146.277344 156.457031 138.304688 156.859375 137.96875 156.878906 C 137.921875 156.878906 137.875 156.882812 137.828125 156.882812 " fill-opacity="1" fill-rule="evenodd"/><g clip-path="url(#4c463d1522)"><path fill="#ffffff" d="M 168.433594 211.742188 C 167.023438 211.742188 165.820312 210.664062 165.6875 209.234375 C 165.546875 207.714844 166.664062 206.367188 168.183594 206.226562 C 170.769531 205.980469 178.023438 204.464844 180.414062 200.496094 C 181.527344 198.648438 181.5 196.367188 180.324219 193.519531 C 177.34375 186.273438 166.234375 183.265625 157.441406 182.015625 C 147.414062 180.589844 138.089844 181.113281 137.996094 181.121094 C 136.46875 181.210938 135.167969 180.046875 135.078125 178.523438 C 134.988281 177 136.148438 175.691406 137.671875 175.605469 C 138.074219 175.582031 147.648438 175.039062 158.21875 176.542969 C 164.535156 177.441406 169.894531 178.890625 174.15625 180.851562 C 179.828125 183.460938 183.625 187.015625 185.433594 191.414062 C 187.296875 195.9375 187.195312 199.957031 185.136719 203.363281 C 183.261719 206.464844 179.875 208.816406 175.074219 210.359375 C 171.699219 211.441406 168.8125 211.71875 168.691406 211.730469 C 168.605469 211.738281 168.519531 211.742188 168.433594 211.742188 " fill-opacity="1" fill-rule="evenodd"/></g></svg>